# Tiled2Unity generated file. Do not modify by hand.
# Wavefront file for 'Villae_mesh_0002.obj'

# Vertices (Count = 444)
v -1 -1 -0.1
v -2 -1 -0.1
v -2 0 -0.1
v -1 0 -0.1
v -2 -1 -0.1
v -3 -1 -0.1
v -3 0 -0.1
v -2 0 -0.1
v -3 -1 -0.1
v -4 -1 -0.1
v -4 0 -0.1
v -3 0 -0.1
v -4 -1 -0.1
v -5 -1 -0.1
v -5 0 -0.1
v -4 0 -0.1
v -5 -1 -0.1
v -6 -1 -0.1
v -6 0 -0.1
v -5 0 -0.1
v -6 -1 -0.1
v -7 -1 -0.1
v -7 0 -0.1
v -6 0 -0.1
v -7 -1 -0.1
v -8 -1 -0.1
v -8 0 -0.1
v -7 0 -0.1
v -8 -1 -0.1
v -9 -1 -0.1
v -9 0 -0.1
v -8 0 -0.1
v -9 -1 -0.1
v -10 -1 -0.1
v -10 0 -0.1
v -9 0 -0.1
v -10 -1 -0.1
v -11 -1 -0.1
v -11 0 -0.1
v -10 0 -0.1
v -11 -1 -0.1
v -12 -1 -0.1
v -12 0 -0.1
v -11 0 -0.1
v -12 -1 -0.1
v -13 -1 -0.1
v -13 0 -0.1
v -12 0 -0.1
v -13 -1 -0.1
v -14 -1 -0.1
v -14 0 -0.1
v -13 0 -0.1
v -14 -1 -0.1
v -15 -1 -0.1
v -15 0 -0.1
v -14 0 -0.1
v -15 -1 -0.1
v -16 -1 -0.1
v -16 0 -0.1
v -15 0 -0.1
v -16 -1 -0.1
v -17 -1 -0.1
v -17 0 -0.1
v -16 0 -0.1
v -17 -1 -0.1
v -18 -1 -0.1
v -18 0 -0.1
v -17 0 -0.1
v -18 -1 -0.1
v -19 -1 -0.1
v -19 0 -0.1
v -18 0 -0.1
v -19 -1 -0.1
v -20 -1 -0.1
v -20 0 -0.1
v -19 0 -0.1
v -20 -1 -0.1
v -21 -1 -0.1
v -21 0 -0.1
v -20 0 -0.1
v -21 -1 -0.1
v -22 -1 -0.1
v -22 0 -0.1
v -21 0 -0.1
v -22 -1 -0.1
v -23 -1 -0.1
v -23 0 -0.1
v -22 0 -0.1
v -1 -2 -0.2
v -2 -2 -0.2
v -2 -1 -0.2
v -1 -1 -0.2
v -2 -2 -0.2
v -3 -2 -0.2
v -3 -1 -0.2
v -2 -1 -0.2
v -3 -2 -0.2
v -4 -2 -0.2
v -4 -1 -0.2
v -3 -1 -0.2
v -4 -2 -0.2
v -5 -2 -0.2
v -5 -1 -0.2
v -4 -1 -0.2
v -5 -2 -0.2
v -6 -2 -0.2
v -6 -1 -0.2
v -5 -1 -0.2
v -6 -2 -0.2
v -7 -2 -0.2
v -7 -1 -0.2
v -6 -1 -0.2
v -7 -2 -0.2
v -8 -2 -0.2
v -8 -1 -0.2
v -7 -1 -0.2
v -8 -2 -0.2
v -9 -2 -0.2
v -9 -1 -0.2
v -8 -1 -0.2
v -9 -2 -0.2
v -10 -2 -0.2
v -10 -1 -0.2
v -9 -1 -0.2
v -10 -2 -0.2
v -11 -2 -0.2
v -11 -1 -0.2
v -10 -1 -0.2
v -11 -2 -0.2
v -12 -2 -0.2
v -12 -1 -0.2
v -11 -1 -0.2
v -12 -2 -0.2
v -13 -2 -0.2
v -13 -1 -0.2
v -12 -1 -0.2
v -13 -2 -0.2
v -14 -2 -0.2
v -14 -1 -0.2
v -13 -1 -0.2
v -14 -2 -0.2
v -15 -2 -0.2
v -15 -1 -0.2
v -14 -1 -0.2
v -15 -2 -0.2
v -16 -2 -0.2
v -16 -1 -0.2
v -15 -1 -0.2
v -16 -2 -0.2
v -17 -2 -0.2
v -17 -1 -0.2
v -16 -1 -0.2
v -17 -2 -0.2
v -18 -2 -0.2
v -18 -1 -0.2
v -17 -1 -0.2
v -18 -2 -0.2
v -19 -2 -0.2
v -19 -1 -0.2
v -18 -1 -0.2
v -19 -2 -0.2
v -20 -2 -0.2
v -20 -1 -0.2
v -19 -1 -0.2
v -20 -2 -0.2
v -21 -2 -0.2
v -21 -1 -0.2
v -20 -1 -0.2
v -21 -2 -0.2
v -22 -2 -0.2
v -22 -1 -0.2
v -21 -1 -0.2
v -22 -2 -0.2
v -23 -2 -0.2
v -23 -1 -0.2
v -22 -1 -0.2
v -1 -3 -0.3
v -2 -3 -0.3
v -2 -2 -0.3
v -1 -2 -0.3
v -2 -3 -0.3
v -3 -3 -0.3
v -3 -2 -0.3
v -2 -2 -0.3
v -3 -3 -0.3
v -4 -3 -0.3
v -4 -2 -0.3
v -3 -2 -0.3
v -4 -3 -0.3
v -5 -3 -0.3
v -5 -2 -0.3
v -4 -2 -0.3
v -5 -3 -0.3
v -6 -3 -0.3
v -6 -2 -0.3
v -5 -2 -0.3
v -6 -3 -0.3
v -7 -3 -0.3
v -7 -2 -0.3
v -6 -2 -0.3
v -7 -3 -0.3
v -8 -3 -0.3
v -8 -2 -0.3
v -7 -2 -0.3
v -8 -3 -0.3
v -9 -3 -0.3
v -9 -2 -0.3
v -8 -2 -0.3
v -9 -3 -0.3
v -10 -3 -0.3
v -10 -2 -0.3
v -9 -2 -0.3
v -10 -3 -0.3
v -11 -3 -0.3
v -11 -2 -0.3
v -10 -2 -0.3
v -11 -3 -0.3
v -12 -3 -0.3
v -12 -2 -0.3
v -11 -2 -0.3
v -12 -3 -0.3
v -13 -3 -0.3
v -13 -2 -0.3
v -12 -2 -0.3
v -13 -3 -0.3
v -14 -3 -0.3
v -14 -2 -0.3
v -13 -2 -0.3
v -14 -3 -0.3
v -15 -3 -0.3
v -15 -2 -0.3
v -14 -2 -0.3
v -15 -3 -0.3
v -16 -3 -0.3
v -16 -2 -0.3
v -15 -2 -0.3
v -16 -3 -0.3
v -17 -3 -0.3
v -17 -2 -0.3
v -16 -2 -0.3
v -17 -3 -0.3
v -18 -3 -0.3
v -18 -2 -0.3
v -17 -2 -0.3
v -18 -3 -0.3
v -19 -3 -0.3
v -19 -2 -0.3
v -18 -2 -0.3
v -19 -3 -0.3
v -20 -3 -0.3
v -20 -2 -0.3
v -19 -2 -0.3
v -20 -3 -0.3
v -21 -3 -0.3
v -21 -2 -0.3
v -20 -2 -0.3
v -21 -3 -0.3
v -22 -3 -0.3
v -22 -2 -0.3
v -21 -2 -0.3
v -22 -3 -0.3
v -23 -3 -0.3
v -23 -2 -0.3
v -22 -2 -0.3
v -1 -4 -0.4
v -2 -4 -0.4
v -2 -3 -0.4
v -1 -3 -0.4
v -2 -4 -0.4
v -3 -4 -0.4
v -3 -3 -0.4
v -2 -3 -0.4
v -3 -4 -0.4
v -4 -4 -0.4
v -4 -3 -0.4
v -3 -3 -0.4
v -4 -4 -0.4
v -5 -4 -0.4
v -5 -3 -0.4
v -4 -3 -0.4
v -5 -4 -0.4
v -6 -4 -0.4
v -6 -3 -0.4
v -5 -3 -0.4
v -6 -4 -0.4
v -7 -4 -0.4
v -7 -3 -0.4
v -6 -3 -0.4
v -7 -4 -0.4
v -8 -4 -0.4
v -8 -3 -0.4
v -7 -3 -0.4
v -8 -4 -0.4
v -9 -4 -0.4
v -9 -3 -0.4
v -8 -3 -0.4
v -9 -4 -0.4
v -10 -4 -0.4
v -10 -3 -0.4
v -9 -3 -0.4
v -10 -4 -0.4
v -11 -4 -0.4
v -11 -3 -0.4
v -10 -3 -0.4
v -11 -4 -0.4
v -12 -4 -0.4
v -12 -3 -0.4
v -11 -3 -0.4
v -12 -4 -0.4
v -13 -4 -0.4
v -13 -3 -0.4
v -12 -3 -0.4
v -13 -4 -0.4
v -14 -4 -0.4
v -14 -3 -0.4
v -13 -3 -0.4
v -14 -4 -0.4
v -15 -4 -0.4
v -15 -3 -0.4
v -14 -3 -0.4
v -15 -4 -0.4
v -16 -4 -0.4
v -16 -3 -0.4
v -15 -3 -0.4
v -16 -4 -0.4
v -17 -4 -0.4
v -17 -3 -0.4
v -16 -3 -0.4
v -17 -4 -0.4
v -18 -4 -0.4
v -18 -3 -0.4
v -17 -3 -0.4
v -18 -4 -0.4
v -19 -4 -0.4
v -19 -3 -0.4
v -18 -3 -0.4
v -19 -4 -0.4
v -20 -4 -0.4
v -20 -3 -0.4
v -19 -3 -0.4
v -20 -4 -0.4
v -21 -4 -0.4
v -21 -3 -0.4
v -20 -3 -0.4
v -21 -4 -0.4
v -22 -4 -0.4
v -22 -3 -0.4
v -21 -3 -0.4
v -22 -4 -0.4
v -23 -4 -0.4
v -23 -3 -0.4
v -22 -3 -0.4
v -1 -5 -0.5
v -2 -5 -0.5
v -2 -4 -0.5
v -1 -4 -0.5
v -2 -5 -0.5
v -3 -5 -0.5
v -3 -4 -0.5
v -2 -4 -0.5
v -3 -5 -0.5
v -4 -5 -0.5
v -4 -4 -0.5
v -3 -4 -0.5
v -4 -5 -0.5
v -5 -5 -0.5
v -5 -4 -0.5
v -4 -4 -0.5
v -5 -5 -0.5
v -6 -5 -0.5
v -6 -4 -0.5
v -5 -4 -0.5
v -6 -5 -0.5
v -7 -5 -0.5
v -7 -4 -0.5
v -6 -4 -0.5
v -7 -5 -0.5
v -8 -5 -0.5
v -8 -4 -0.5
v -7 -4 -0.5
v -8 -5 -0.5
v -9 -5 -0.5
v -9 -4 -0.5
v -8 -4 -0.5
v -9 -5 -0.5
v -10 -5 -0.5
v -10 -4 -0.5
v -9 -4 -0.5
v -10 -5 -0.5
v -11 -5 -0.5
v -11 -4 -0.5
v -10 -4 -0.5
v -11 -5 -0.5
v -12 -5 -0.5
v -12 -4 -0.5
v -11 -4 -0.5
v -12 -5 -0.5
v -13 -5 -0.5
v -13 -4 -0.5
v -12 -4 -0.5
v -13 -5 -0.5
v -14 -5 -0.5
v -14 -4 -0.5
v -13 -4 -0.5
v -14 -5 -0.5
v -15 -5 -0.5
v -15 -4 -0.5
v -14 -4 -0.5
v -15 -5 -0.5
v -16 -5 -0.5
v -16 -4 -0.5
v -15 -4 -0.5
v -16 -5 -0.5
v -17 -5 -0.5
v -17 -4 -0.5
v -16 -4 -0.5
v -17 -5 -0.5
v -18 -5 -0.5
v -18 -4 -0.5
v -17 -4 -0.5
v -18 -5 -0.5
v -19 -5 -0.5
v -19 -4 -0.5
v -18 -4 -0.5
v -19 -5 -0.5
v -20 -5 -0.5
v -20 -4 -0.5
v -19 -4 -0.5
v -20 -5 -0.5
v -21 -5 -0.5
v -21 -4 -0.5
v -20 -4 -0.5
v -21 -5 -0.5
v -22 -5 -0.5
v -22 -4 -0.5
v -21 -4 -0.5
v -22 -5 -0.5
v -23 -5 -0.5
v -23 -4 -0.5
v -22 -4 -0.5
v -23 -6 -0.6
v -24 -6 -0.6
v -24 -5 -0.6
v -23 -5 -0.6

# Texture cooridinates (Count = 62)
vt 0.4666667 0.9
vt 0.5333334 0.9
vt 0.5333334 1
vt 0.4666667 1
vt 0.6 0.9
vt 0.6 1
vt 0.6666667 0.9
vt 0.6666667 1
vt 0.7333333 0.9
vt 0.7333333 1
vt 0.8 0.9
vt 0.8 1
vt 0.8666667 0.9
vt 0.8666667 1
vt 0.9333333 0.9
vt 0.9333333 1
vt 1 0.9
vt 1 1
vt 0.4 0.9
vt 0.4 1
vt 0.4666667 0.8
vt 0.5333334 0.8
vt 0.6 0.8
vt 0.6666667 0.8
vt 0.7333333 0.8
vt 0.8 0.8
vt 0.8666667 0.8
vt 0.9333333 0.8
vt 1 0.8
vt 0.4 0.8
vt 0.4666667 0.7
vt 0.5333334 0.7
vt 0.6 0.7
vt 0.6666667 0.7
vt 0.7333333 0.7
vt 0.8 0.7
vt 0.8666667 0.7
vt 0.9333333 0.7
vt 1 0.7
vt 0.4 0.7
vt 0.4666667 0.6
vt 0.5333334 0.6
vt 0.6 0.6
vt 0.6666667 0.6
vt 0.7333333 0.6
vt 0.8 0.6
vt 0.8666667 0.6
vt 0.9333333 0.6
vt 1 0.6
vt 0.4 0.6
vt 0.4666667 0.5
vt 0.5333334 0.5
vt 0.6 0.5
vt 0.6666667 0.5
vt 0.7333333 0.5
vt 0.8 0.5
vt 0.8666667 0.5
vt 0.9333333 0.5
vt 1 0.5
vt 0.4 0.5
vt 0.5333334 0.4
vt 0.6 0.4

# Normal
vn 0 0 -1

# Mesh description
g Villae_mesh_0002

# Faces
f 1/1/1 2/2/1 3/3/1 4/4/1
f 5/2/1 6/5/1 7/6/1 8/3/1
f 9/5/1 10/7/1 11/8/1 12/6/1
f 13/1/1 14/2/1 15/3/1 16/4/1
f 17/2/1 18/5/1 19/6/1 20/3/1
f 21/5/1 22/7/1 23/8/1 24/6/1
f 25/7/1 26/9/1 27/10/1 28/8/1
f 29/9/1 30/11/1 31/12/1 32/10/1
f 33/11/1 34/13/1 35/14/1 36/12/1
f 37/13/1 38/15/1 39/16/1 40/14/1
f 41/15/1 42/17/1 43/18/1 44/16/1
f 45/19/1 46/1/1 47/4/1 48/20/1
f 49/1/1 50/2/1 51/3/1 52/4/1
f 53/2/1 54/5/1 55/6/1 56/3/1
f 57/5/1 58/7/1 59/8/1 60/6/1
f 61/7/1 62/9/1 63/10/1 64/8/1
f 65/9/1 66/11/1 67/12/1 68/10/1
f 69/11/1 70/13/1 71/14/1 72/12/1
f 73/13/1 74/15/1 75/16/1 76/14/1
f 77/15/1 78/17/1 79/18/1 80/16/1
f 81/19/1 82/1/1 83/4/1 84/20/1
f 85/1/1 86/2/1 87/3/1 88/4/1
f 89/21/1 90/22/1 91/2/1 92/1/1
f 93/22/1 94/23/1 95/5/1 96/2/1
f 97/23/1 98/24/1 99/7/1 100/5/1
f 101/21/1 102/22/1 103/2/1 104/1/1
f 105/22/1 106/23/1 107/5/1 108/2/1
f 109/23/1 110/24/1 111/7/1 112/5/1
f 113/24/1 114/25/1 115/9/1 116/7/1
f 117/25/1 118/26/1 119/11/1 120/9/1
f 121/26/1 122/27/1 123/13/1 124/11/1
f 125/27/1 126/28/1 127/15/1 128/13/1
f 129/28/1 130/29/1 131/17/1 132/15/1
f 133/30/1 134/21/1 135/1/1 136/19/1
f 137/21/1 138/22/1 139/2/1 140/1/1
f 141/22/1 142/23/1 143/5/1 144/2/1
f 145/23/1 146/24/1 147/7/1 148/5/1
f 149/24/1 150/25/1 151/9/1 152/7/1
f 153/25/1 154/26/1 155/11/1 156/9/1
f 157/26/1 158/27/1 159/13/1 160/11/1
f 161/27/1 162/28/1 163/15/1 164/13/1
f 165/28/1 166/29/1 167/17/1 168/15/1
f 169/30/1 170/21/1 171/1/1 172/19/1
f 173/21/1 174/22/1 175/2/1 176/1/1
f 177/31/1 178/32/1 179/22/1 180/21/1
f 181/32/1 182/33/1 183/23/1 184/22/1
f 185/33/1 186/34/1 187/24/1 188/23/1
f 189/31/1 190/32/1 191/22/1 192/21/1
f 193/32/1 194/33/1 195/23/1 196/22/1
f 197/33/1 198/34/1 199/24/1 200/23/1
f 201/34/1 202/35/1 203/25/1 204/24/1
f 205/35/1 206/36/1 207/26/1 208/25/1
f 209/36/1 210/37/1 211/27/1 212/26/1
f 213/37/1 214/38/1 215/28/1 216/27/1
f 217/38/1 218/39/1 219/29/1 220/28/1
f 221/40/1 222/31/1 223/21/1 224/30/1
f 225/31/1 226/32/1 227/22/1 228/21/1
f 229/32/1 230/33/1 231/23/1 232/22/1
f 233/33/1 234/34/1 235/24/1 236/23/1
f 237/34/1 238/35/1 239/25/1 240/24/1
f 241/35/1 242/36/1 243/26/1 244/25/1
f 245/36/1 246/37/1 247/27/1 248/26/1
f 249/37/1 250/38/1 251/28/1 252/27/1
f 253/38/1 254/39/1 255/29/1 256/28/1
f 257/40/1 258/31/1 259/21/1 260/30/1
f 261/31/1 262/32/1 263/22/1 264/21/1
f 265/41/1 266/42/1 267/32/1 268/31/1
f 269/42/1 270/43/1 271/33/1 272/32/1
f 273/43/1 274/44/1 275/34/1 276/33/1
f 277/41/1 278/42/1 279/32/1 280/31/1
f 281/42/1 282/43/1 283/33/1 284/32/1
f 285/43/1 286/44/1 287/34/1 288/33/1
f 289/44/1 290/45/1 291/35/1 292/34/1
f 293/45/1 294/46/1 295/36/1 296/35/1
f 297/46/1 298/47/1 299/37/1 300/36/1
f 301/47/1 302/48/1 303/38/1 304/37/1
f 305/48/1 306/49/1 307/39/1 308/38/1
f 309/50/1 310/41/1 311/31/1 312/40/1
f 313/41/1 314/42/1 315/32/1 316/31/1
f 317/42/1 318/43/1 319/33/1 320/32/1
f 321/43/1 322/44/1 323/34/1 324/33/1
f 325/44/1 326/45/1 327/35/1 328/34/1
f 329/45/1 330/46/1 331/36/1 332/35/1
f 333/46/1 334/47/1 335/37/1 336/36/1
f 337/47/1 338/48/1 339/38/1 340/37/1
f 341/48/1 342/49/1 343/39/1 344/38/1
f 345/50/1 346/41/1 347/31/1 348/40/1
f 349/41/1 350/42/1 351/32/1 352/31/1
f 353/51/1 354/52/1 355/42/1 356/41/1
f 357/52/1 358/53/1 359/43/1 360/42/1
f 361/53/1 362/54/1 363/44/1 364/43/1
f 365/51/1 366/52/1 367/42/1 368/41/1
f 369/52/1 370/53/1 371/43/1 372/42/1
f 373/53/1 374/54/1 375/44/1 376/43/1
f 377/54/1 378/55/1 379/45/1 380/44/1
f 381/55/1 382/56/1 383/46/1 384/45/1
f 385/56/1 386/57/1 387/47/1 388/46/1
f 389/57/1 390/58/1 391/48/1 392/47/1
f 393/58/1 394/59/1 395/49/1 396/48/1
f 397/60/1 398/51/1 399/41/1 400/50/1
f 401/51/1 402/52/1 403/42/1 404/41/1
f 405/52/1 406/53/1 407/43/1 408/42/1
f 409/53/1 410/54/1 411/44/1 412/43/1
f 413/54/1 414/55/1 415/45/1 416/44/1
f 417/55/1 418/56/1 419/46/1 420/45/1
f 421/56/1 422/57/1 423/47/1 424/46/1
f 425/57/1 426/58/1 427/48/1 428/47/1
f 429/58/1 430/59/1 431/49/1 432/48/1
f 433/60/1 434/51/1 435/41/1 436/50/1
f 437/51/1 438/52/1 439/42/1 440/41/1
f 441/61/1 442/62/1 443/53/1 444/52/1

